<svg id="Lager_1" data-name="Lager 1" xmlns="http://www.w3.org/2000/svg" viewBox="0 0 246.71 639.1"><defs><style>.cls-1{fill:#fff;}</style></defs><title>INKA logo feather</title><path class="cls-1" d="M634.1,730.3c25.1-72.9,64.7-142.7,115.6-200.8,54.4,56,97.6,125.9,123.7,199.4,2.2-115.5-51-230.9-123.3-319.1-76.7,93.6-131.7,217.5-122.3,340.3Q630.65,740.05,634.1,730.3Z" transform="translate(-626.75 -409.8)"/><path class="cls-1" d="M794.7,621.1a564.51,564.51,0,0,0-44.4-57.8c-69.2,86.6-136.7,201.4-96.2,311.3,24.3-56.5,56.1-111.9,96.5-158.5,41.4,41.7,74.8,93.2,99.6,146.2,31.1-91.6-2.8-162.9-55.5-241.2C776.1,593.6,823.1,663.2,794.7,621.1Z" transform="translate(-626.75 -409.8)"/><path class="cls-1" d="M841.5,893.5c-30.3-71.3-73.5-124.3-90-143.2-15.7,20.3-57.5,78.2-88,155.4,30.2,71.2,70.8,124.1,86.5,143.2C766.5,1028.7,810.9,970.8,841.5,893.5Z" transform="translate(-626.75 -409.8)"/></svg>