<?xml version="1.0" encoding="utf-8"?>
<!-- Generator: Adobe Illustrator 19.2.0, SVG Export Plug-In . SVG Version: 6.00 Build 0)  -->
<svg version="1.1" id="Lager_1" xmlns="http://www.w3.org/2000/svg" xmlns:xlink="http://www.w3.org/1999/xlink" x="0px" y="0px"
	 viewBox="0 0 283.5 283.5" style="enable-background:new 0 0 283.5 283.5;" xml:space="preserve">
<style type="text/css">
	.st0{fill:none;stroke:#ffffff;}
	.st1{fill:#FFFFFF;}
</style>
<g class="st1">
	<g>
		<path d="M176.1,71.6l-71.8,0h-1v1v35.8v1h1h16.3v16.4v0.7l0,58.4h-16.3h-1v1v35.8v1h1h71.8h1v-1v-35.8v-1h-1h-16.3l0-35.4l0-40.1
			h16.3h1v-1V72.6v-1H176.1z M122.6,108.4v-1h-1h-16.3V73.6l69.8,0v33.8h-16.3h-1v1l0,41.1l0,36.4v1h1h16.3v33.8h-69.8v-33.8h16.3h1
			v-1L122.6,108.4z"/>
		<polygon class="st0" points="154.5,168.5 154.5,104.1 171.8,104.1 171.8,76.8 140.8,76.8 132.5,76.8 108.5,76.8 108.5,104.1 
			125.8,104.1 125.8,125.8 125.8,125.8 125.8,190.1 108.5,190.1 108.5,217.5 139.5,217.5 147.8,217.5 171.8,217.5 171.8,190.1 
			154.5,190.1 154.5,168.5 		"/>
		<path class="st1" d="M198.2,148.9c-0.4-13.8-10-21.1-14.1-23.7c-4.9-3-12.8-6-32.1-5c-22.5,1.2-58.6,14.5-84.1,33.9
			c-1.6,1.2-3.9,3.5-3.6,4s0,1.6,3.5,2.6s8.5,1.4,8.5,1.4s4.6,0.2,7.1-0.2s4.6-1.8,6-2.9c2.6-2,17.1-12.4,30.4-11.6
			c3,0.2,6.1,0.5,8.6,3.5c2.5,3,3,9,2.8,12.2s-0.1,3.1-1.1,4.2c-1,1.1-5.3,2.6-8.2,4.1c-2.1,1-3.2,1.7-3,3.4c0.1,1,4.1,2.2,8.3,2.5
			c3.9,0.2,11.6,0.4,14.4,0.2c2.2-0.2,3.9-0.9,3.9-2.4c0-2.3-0.9-3.8-1.2-5.8c-0.4-2.8-0.7-6.7-0.4-9.5c0.1-1.5,0.3-3,0.6-4.5
			c0,0,0,0,0,0s5.9,6.4,17.2,6.2c9.3-0.1,12.4-2.4,12.4-2.4l-0.1,0.1c1.9,1.4,3.2,2.1,3.2,2.1s0.4,1.8,0.1,3.2
			c-4.8,1.4-8.5,5.1-8.7,6.7c-0.1,1.1-0.1,1.6,0.4,2.5c0.7,1.2,4.2,1.2,6.5,1.3c3.4,0.1,12.8,0.1,16.1,0s4.7-3.6,5.6-6.5
			C198.6,164.9,198.5,159.4,198.2,148.9z"/>
		<g>
			<path d="M162.1,144.6c2.5,10.5,14.2,17.1,14.7,17.4l-0.4-0.5c0,0,0.3,1.7,0.1,2.9l0.5-0.6c-4.7,1.7-8.7,5.5-9.4,7.9
				c-0.5,1.6,1.6,2.5,2.6,3c1.6,0.7,5.5,1.2,6.5,1.3c3.4,0.1,11.6,0,14.9-0.2c4-0.2,5.5-4.6,6.3-7c1.3-3.9,1.2-9.5,0.9-20
				c-0.4-14.1-10.3-21.7-14.5-24.3c-4.7-2.9-12.7-6.2-32.6-5.1c-20.8,1.2-57.5,13.5-84.5,34c-0.2,0.1-4.6,3.5-3.8,4.9
				c0,0,0,0.1,0,0.1c0.3,0.9,0.8,2,3.9,2.9c3.5,1,8.4,1.4,8.7,1.4c0.2,0,4.8,0.2,7.3-0.3c2.1-0.4,4.2-1.4,6.3-3
				c1.6-1.3,16.5-12.2,29.9-11.5c2.9,0.2,6.7,1.3,9.1,4.1l-0.1-0.1c1.4,2.2,1.9,7.8,1.6,10.9c-0.2,2.7-0.4,3-1.2,3.8l-0.2,0.2
				c-0.5,0.6-2.4,1.4-4.1,2.1c-1.1,0.5-2.3,1-3.4,1.5c-2.1,1.1-3.7,1.9-3.4,4.2c0.3,2,6.2,3,9,3.1c4,0.2,11.7,0.4,14.5,0.2
				c4-0.4,4.6-2.1,4.6-3.2c0-1.5-0.4-2.7-0.7-3.8c-0.2-0.7-0.4-1.4-0.6-2.2c-0.4-2.6-0.7-6.5-0.4-9.3l0-0.3c0.2-2.5-0.3-5.2,1.3-7.7
				l-0.5-0.5c-1.8,2.8-2,5.4-2.2,8.1l0,0.3c-0.3,2.9,0,7,0.4,9.7c0.1,0.9,0.4,1.7,0.6,2.4c0.3,1.1,0.6,2,0.6,3.3
				c0,1.2-2.3,1.6-3.2,1.7c-2.8,0.2-10.4,0.1-14.3-0.2c-4.1-0.2-7.3-1.4-7.7-1.9c0,0,0,0,0,0.1c-0.2-1.1,0.3-1.5,2.6-2.6
				c1-0.5,2.2-1,3.3-1.5c2.1-0.9,3.9-1.7,4.7-2.5l0.2-0.2c1-1.1,1.3-1.6,1.6-4.7c0.3-3.3-0.2-9.3-1.9-11.8l0,0l0,0
				c-2.7-3.2-7-4.5-10.2-4.7c-13.9-0.8-29.2,10.5-30.9,11.8c-1.9,1.4-3.8,2.4-5.7,2.7c-2.4,0.5-6.9,0.2-6.9,0.2c0,0-5-0.4-8.3-1.3
				c-2.6-0.7-2.8-1.4-2.9-1.8c0-0.1-0.1-0.3-0.1-0.4c0.1,0.2,0.1,0.3,0,0.3c0.1-0.4,1.7-2.2,3.4-3.4c26.8-20.4,63.1-32.6,83.7-33.7
				c19.4-1.1,27.1,2,31.7,4.8c4,2.5,13.4,9.7,13.8,23c0.3,10.3,0.4,15.9-0.8,19.5c-1,3.1-2.3,5.9-4.9,6c-3.3,0.1-11.4,0.3-14.8,0.2
				c-1,0-4.7-0.6-5.9-1.1c-1.7-0.7-1.9-1.1-1.8-1.2c0.5-1.8,4-5.3,8.4-6.9l0.4-0.1l0.1-0.4c0.3-1.5-0.1-3.4-0.1-3.5l-0.1-0.3
				l-0.3-0.2c-0.1-0.1-12.6-6.5-14.9-16.3L162.1,144.6z"/>
		</g>
		<g>
			<path d="M143.8,155.9c0.3,0.3,6.3,6.6,17.8,6.5c9.5-0.1,12.7-2.5,12.9-2.6l-0.9-1.2l0,0c0,0-3.1,2.1-12,2.3
				c-11,0.2-17-6.4-17-6.4L143.8,155.9z"/>
		</g>
	</g>
	<g>
		<path d="M19.4,142.3c-0.1-2.3,1.3-4,3.7-4c2,0,3.6,1.2,3.6,3.3c0,2-1.3,3-2.8,3.9c-1.4,0.9-2.9,1.6-3.2,3h5.8v1.2h-7.4
			c0.2-2.7,1.6-3.7,3.2-4.7c1.9-1.2,2.9-1.9,2.9-3.5c0-1.2-1-2.1-2.2-2.1c-1.6,0-2.3,1.5-2.2,2.8H19.4z"/>
		<path d="M32.9,138.3c3.6,0,3.8,3.3,3.8,5.8c0,2.5-0.2,5.8-3.8,5.8c-3.6,0-3.8-3.3-3.8-5.8C29.1,141.5,29.3,138.3,32.9,138.3z
			 M32.9,148.6c2.3,0,2.3-2.9,2.3-4.6c0-1.7,0-4.6-2.3-4.6c-2.3,0-2.3,2.9-2.3,4.6C30.6,145.8,30.6,148.6,32.9,148.6z"/>
	</g>
	<g>
		<path d="M253.2,138.3c3.6,0,3.8,3.3,3.8,5.8c0,2.5-0.2,5.8-3.8,5.8c-3.6,0-3.8-3.3-3.8-5.8C249.4,141.5,249.6,138.3,253.2,138.3z
			 M253.2,148.6c2.3,0,2.3-2.9,2.3-4.6c0-1.7,0-4.6-2.3-4.6c-2.3,0-2.3,2.9-2.3,4.6C250.8,145.8,250.8,148.6,253.2,148.6z"/>
		<path d="M259.2,142.3c-0.1-2.3,1.3-4,3.7-4c2,0,3.6,1.2,3.6,3.3c0,2-1.3,3-2.8,3.9c-1.4,0.9-2.9,1.6-3.2,3h5.8v1.2h-7.4
			c0.2-2.7,1.6-3.7,3.2-4.7c1.9-1.2,2.9-1.9,2.9-3.5c0-1.2-1-2.1-2.2-2.1c-1.6,0-2.3,1.5-2.2,2.8H259.2z"/>
	</g>
	<g>
		<path d="M20.7,108.9l0.4-1.5l11,3.4l-0.4,1.5L20.7,108.9z"/>
		<path d="M24.6,97.6l0.7-1.5l11-1.7l0,0l-8.5-3.8l0.6-1.3L38.8,94l-0.7,1.5l-10.9,1.7l0,0l8.4,3.8l-0.6,1.3L24.6,97.6z"/>
		<path d="M33.5,80l2.2-3.3c1.9-3,4.5-3.6,7.6-1.6c3.2,2.1,4.1,4.7,2,7.9l-2.2,3.3L33.5,80z M42.9,84.2l1.4-2.1
			c0.6-0.9,1.9-3.4-1.7-5.7c-2.3-1.5-4.2-1.6-5.8,0.8l-1.4,2.2L42.9,84.2z"/>
		<path d="M56.5,62.2c2.1,1.9,2.2,4.2,0.3,6.3c-2,2.2-4.2,2.6-6.4,0.5l-5.4-4.9l1-1.1l5.4,4.9c1.5,1.4,3.1,1.2,4.5-0.3
			c1.3-1.4,1.2-3-0.3-4.3L50,58.4l1-1.1L56.5,62.2z"/>
		<path d="M66,48.4c-1.2-1.2-2.5-1-3.7,0c-1,0.8-1.7,2-0.7,3.1c0.9,1.1,2.4,0.1,4.1-0.8c1.7-0.8,3.5-1.5,4.9,0.2
			c1.6,1.9,0.3,4.2-1.3,5.5c-2,1.6-4.5,2-6.2-0.1l1.1-0.9c1.2,1.5,3,1.1,4.3,0c1.1-0.9,2-2.2,0.9-3.5c-1-1.2-2.6-0.3-4.3,0.6
			c-1.7,0.9-3.4,1.6-4.8,0c-1.5-1.8-0.5-3.9,1.1-5.2c1.8-1.5,3.9-1.8,5.6,0.1L66,48.4z"/>
		<path d="M76.3,38.6l-3.3,2l-0.7-1.1l7.8-4.8l0.7,1.1l-3.3,2l5.3,8.7l-1.3,0.8L76.3,38.6z"/>
		<path d="M88.6,30.5l5-2.1c2-0.8,3.7-0.3,4.4,1.4c0.5,1.3,0.4,2.6-0.7,3.5l0,0c1.3-0.3,2,0.5,2.5,1.5c0.5,1,1,2.2,1.9,2.6l-1.6,0.7
			c-0.6-0.3-0.8-1.5-1.5-2.4c-0.6-1-1.2-1.7-2.6-1.2l-3.4,1.5l1.9,4.5L93.1,41L88.6,30.5z M95,33.5c1.3-0.6,2.3-1.4,1.6-2.9
			c-0.4-1-1.3-1.6-2.6-1l-3.5,1.5l1.6,3.7L95,33.5z"/>
		<path d="M106.3,23.8l1.5-0.4l3.2,11l-1.5,0.4L106.3,23.8z"/>
		<path d="M117.8,21l7.8-1.3l0.2,1.3l-6.3,1l0.6,3.6l5.9-1l0.2,1.3l-5.9,1l0.7,3.9l6.4-1.1l0.2,1.3l-7.9,1.3L117.8,21z"/>
		<path d="M135.4,18.8l1.5,0l0.3,10.2l6.1-0.2l0,1.3l-7.6,0.2L135.4,18.8z"/>
		<path d="M152.3,19l1.5,0.2l-1,10.1l6,0.6l-0.1,1.3l-7.6-0.8L152.3,19z"/>
		<path d="M180.6,24.5l7.5,2.6l-0.4,1.2l-6-2.1l-1.2,3.4l5.6,2l-0.4,1.2l-5.6-2l-1.3,3.7l6.1,2.1l-0.4,1.2l-7.5-2.6L180.6,24.5z"/>
		<path d="M197.3,31.1l1.4,0.7l-2.6,5.1l7.8-2.4l1.8,0.9l-6.4,1.9l1.3,8.4l-1.7-0.9l-1-7.1l-2.5,0.7l-1.9,3.6l-1.4-0.7L197.3,31.1z"
			/>
		<path d="M217.8,43.2c2.9,2.2,2.7,5.6,0.9,8.1c-1.9,2.5-5.1,3.7-8,1.6c-2.9-2.2-2.7-5.6-0.9-8.1C211.6,42.2,214.8,41,217.8,43.2z
			 M211.4,51.8c2.3,1.7,4.6,0.4,6-1.4c1.4-1.9,1.9-4.5-0.4-6.2c-2.2-1.7-4.6-0.4-6,1.4C209.6,47.5,209.2,50.1,211.4,51.8z"/>
		<path d="M229.6,53.3l1.1,1.2l-2.4,10.8l0,0l6.6-6.5l1,1l-8.2,8.1l-1.2-1.2l2.4-10.7l0,0l-6.6,6.5l-1-1L229.6,53.3z"/>
		<path d="M246,71.8c2.1,3,0.8,6.2-1.7,8c-2.5,1.8-6,2-8.1-1c-2.1-3-0.8-6.2,1.7-8C240.4,69,243.9,68.8,246,71.8z M237.2,78
			c1.6,2.3,4.3,1.8,6.2,0.5c1.9-1.3,3.2-3.7,1.5-6c-1.6-2.3-4.3-1.8-6.2-0.5C236.9,73.4,235.6,75.8,237.2,78z"/>
		<path d="M254.2,85.3l0.9,1.9l-7.1,7.5l10.3-0.9l0.9,1.9l-10.3,5l-0.6-1.3l8.6-4.2l0,0L246.7,96l-0.6-1.2l7-7.4l0,0l-8.6,4.2
			l-0.6-1.3L254.2,85.3z"/>
		<path d="M262.8,105.5l0.5,1.5l-10.9,3.6l-0.5-1.5L262.8,105.5z"/>
	</g>
	<g>
		<path d="M81.1,235.4l1.3,0.9l-5.7,8.5l5,3.4l-0.7,1.1l-6.3-4.2L81.1,235.4z"/>
		<path d="M142.6,257.2l-3.8-0.1l0-1.3l9.2,0.1l0,1.3l-3.8-0.1l-0.2,10.2l-1.5,0L142.6,257.2z"/>
		<path d="M200.8,240.9l1.3-0.8l2.7,4.2l5.1-3.3l-2.7-4.2l1.3-0.8l6.2,9.7l-1.3,0.8l-2.8-4.4l-5.1,3.3l2.8,4.4l-1.3,0.8L200.8,240.9
			z"/>
	</g>
</g>
</svg>
