<svg id="Lager_1" data-name="Lager 1" xmlns="http://www.w3.org/2000/svg" viewBox="0 0 996.38 639.01"><defs><style>.cls-1{fill:#fff;}</style></defs><title>INKA logo transp white</title><path class="cls-1" d="M248.65,740.61c25.07-72.93,64.73-142.68,115.56-200.84,54.41,56,97.59,125.86,123.68,199.44,2.15-115.53-51-230.89-123.34-319.06-76.74,93.58-131.69,217.54-122.31,340.26C244.22,753.77,246.4,747.17,248.65,740.61Z" transform="translate(-241.19 -420.15)"/><path class="cls-1" d="M409.26,631.43a557.26,557.26,0,0,0-44.36-57.78C295.71,660.27,228.17,775.05,268.66,885c24.27-56.5,56.07-111.88,96.53-158.5,41.45,41.71,74.76,93.2,99.58,146.22,31.07-91.64-2.79-163-55.51-241.27h0Z" transform="translate(-241.19 -420.15)"/><path class="cls-1" d="M456,903.83c-30.34-71.3-73.45-124.35-90-143.22-15.74,20.34-57.54,78.23-88,155.35,30.21,71.15,70.81,124.13,86.5,143.2C381.11,1039,425.43,981.1,456,903.83Z" transform="translate(-241.19 -420.15)"/><path class="cls-1" d="M548.75,615.83h56.1v270.8h-56.1V615.83Z" transform="translate(-241.19 -420.15)"/><path class="cls-1" d="M758.18,615.83h56.1v270.8H766.34l-65.62-116.8q-2-3.6-5.61-10.4t-7.48-14.2q-3.91-7.4-7.48-14.4t-6-11.4q0.34,6,.85,14.6t1,17.4q0.51,8.8.85,17.2t0.34,14l1,104h-56.1V615.83h45.9l66.3,116q3.06,5.61,6.8,12.6t7.65,14.2q3.9,7.2,7.31,13.8t5.78,11.4q-0.34-6.39-.68-14.8t-0.85-17.4q-0.51-9-.85-17.4t-0.34-14.8Z" transform="translate(-241.19 -420.15)"/><path class="cls-1" d="M831.62,615.83h56.1v270.8h-56.1V615.83Zm168.47,48.8A235.52,235.52,0,0,1,986.32,700a136.1,136.1,0,0,1-16,25.4,178.4,178.4,0,0,1-17.68,18.8l79.56,142.4H969.66l-78.2-148.4v-4.8a100.23,100.23,0,0,0,25.33-19.8,110.51,110.51,0,0,0,17.51-26,187.71,187.71,0,0,0,12.07-32.4q4.92-17.79,9-39.4h55.76A383.13,383.13,0,0,1,1000.09,664.63Z" transform="translate(-241.19 -420.15)"/><path class="cls-1" d="M1103.27,615.83h50l84.32,270.8h-56.78l-17-65.2h-74.46l-17.68,65.2h-55.76Zm47.94,156.8q-3.4-11.6-7-24.2t-6.8-24.6q-3.24-12-6-22.6t-4.76-17.8q-2,7.6-4.76,18.2t-6,22.6q-3.24,12-6.8,24.4t-7,24h49Z" transform="translate(-241.19 -420.15)"/><path class="cls-1" d="M549.42,899.25q1.51-.83,3.46-1.75T557,895.8a34.42,34.42,0,0,1,4.43-1.29,20.61,20.61,0,0,1,4.43-.5,18.68,18.68,0,0,1,5.66.83,11.46,11.46,0,0,1,4.54,2.67,13,13,0,0,1,3,4.66,18.9,18.9,0,0,1,1.12,6.91,25,25,0,0,1-2.45,10.66,55,55,0,0,1-7.64,11.5l-4.33,5.25h15.65v11.25H549.35l-1.3-3.5,2.45-3.92,2.67-4.25q1.37-2.17,2.67-4.25t2.45-4q2.67-3.33,4.54-5.87a43.24,43.24,0,0,0,3-4.62,19.22,19.22,0,0,0,1.66-3.79,11.61,11.61,0,0,0,.5-3.29,6.14,6.14,0,0,0-1.12-3.71,3.65,3.65,0,0,0-3.14-1.54,10.83,10.83,0,0,0-4.36,1.08q-2.42,1.08-5.8,2.92Z" transform="translate(-241.19 -420.15)"/><path class="cls-1" d="M616.4,901q4.61,7,4.61,19.62A48.92,48.92,0,0,1,619.79,932a27.47,27.47,0,0,1-3.64,8.79,17.19,17.19,0,0,1-6,5.67,16.61,16.61,0,0,1-8.26,2q-9,0-13.66-6.87T583.59,922a48.06,48.06,0,0,1,1.26-11.41,28,28,0,0,1,3.68-8.83,17.47,17.47,0,0,1,6-5.71,16.54,16.54,0,0,1,8.29-2Q611.78,894,616.4,901Zm-19.18,6.66q-1.37,4.46-1.37,13.37,0,4.17.29,7.54a26.54,26.54,0,0,0,1,5.75,8.44,8.44,0,0,0,2.13,3.67,4.84,4.84,0,0,0,3.46,1.29q3.24,0,4.58-4.42t1.33-13.25q0-4.16-.29-7.54a27.42,27.42,0,0,0-1-5.79,9.26,9.26,0,0,0-2.06-3.75,4.52,4.52,0,0,0-3.39-1.33Q598.59,903.25,597.22,907.71Z" transform="translate(-241.19 -420.15)"/><path class="cls-1" d="M622.89,899.25q1.51-.83,3.46-1.75t4.11-1.71a34.42,34.42,0,0,1,4.43-1.29,20.61,20.61,0,0,1,4.43-.5,18.68,18.68,0,0,1,5.66.83,11.46,11.46,0,0,1,4.54,2.67,13,13,0,0,1,3,4.66,18.9,18.9,0,0,1,1.12,6.91,25,25,0,0,1-2.45,10.66,55,55,0,0,1-7.64,11.5l-4.33,5.25H654.9v11.25H622.81l-1.3-3.5,2.45-3.92,2.67-4.25q1.37-2.17,2.67-4.25t2.45-4q2.67-3.33,4.54-5.87a43.24,43.24,0,0,0,3-4.62,19.22,19.22,0,0,0,1.66-3.79,11.61,11.61,0,0,0,.5-3.29,6.14,6.14,0,0,0-1.12-3.71,3.65,3.65,0,0,0-3.14-1.54,10.83,10.83,0,0,0-4.36,1.08q-2.42,1.08-5.8,2.92Z" transform="translate(-241.19 -420.15)"/><path class="cls-1" d="M678.11,894.42v53.31H666.72v-39a31.18,31.18,0,0,1-4,3,26.05,26.05,0,0,1-4.4,2.25l-4-8.5a82.62,82.62,0,0,0,7.53-4.29,31.58,31.58,0,0,0,7.39-6.79h8.8Z" transform="translate(-241.19 -420.15)"/></svg>